<?xml version="1.0" encoding="UTF-8" standalone="no"?>
<!DOCTYPE svg PUBLIC "-//W3C//DTD SVG 1.1//EN"
 "http://www.w3.org/Graphics/SVG/1.1/DTD/svg11.dtd">
<!-- Generated by graphviz version 2.47.0 (20210316.0004)
 -->
<!-- Title: dependencies Pages: 1 -->
<svg width="594pt" height="222pt"
 viewBox="0.00 0.00 594.00 222.00" xmlns="http://www.w3.org/2000/svg" xmlns:xlink="http://www.w3.org/1999/xlink">
<g id="graph0" class="graph" transform="scale(1 1) rotate(0) translate(4 218)">
<title>dependencies</title>
<polygon fill="white" stroke="transparent" points="-4,4 -4,-218 590,-218 590,4 -4,4"/>
<text text-anchor="start" x="272.01" y="-42.4" font-family="Times-12" font-weight="bold" font-size="14.00">Legend</text>
<polygon fill="#ffffb3" stroke="transparent" points="59,-10 59,-30 79,-30 79,-10 59,-10"/>
<text text-anchor="start" x="82.63" y="-15.4" font-family="Times-12" font-size="14.00"> &#160;Declarations</text>
<polygon fill="#8dd3c7" stroke="transparent" points="172,-10 172,-30 192,-30 192,-10 172,-10"/>
<text text-anchor="start" x="195.73" y="-15.4" font-family="Times-12" font-size="14.00"> &#160;Module</text>
<polygon fill="#80b1d3" stroke="transparent" points="258,-10 258,-30 278,-30 278,-10 258,-10"/>
<text text-anchor="start" x="281.78" y="-15.4" font-family="Times-12" font-size="14.00"> &#160;Bootstrap</text>
<polygon fill="#fdb462" stroke="transparent" points="355,-10 355,-30 375,-30 375,-10 355,-10"/>
<text text-anchor="start" x="378.67" y="-15.4" font-family="Times-12" font-size="14.00"> &#160;Providers</text>
<polygon fill="#fb8072" stroke="transparent" points="451,-10 451,-30 471,-30 471,-10 451,-10"/>
<text text-anchor="start" x="474.73" y="-15.4" font-family="Times-12" font-size="14.00"> &#160;Exports</text>
<g id="clust1" class="cluster">
<title>cluster_AppModule</title>
<polygon fill="none" stroke="black" stroke-dasharray="1,5" points="8,-70 8,-198 280,-198 280,-70 8,-70"/>
</g>
<g id="clust3" class="cluster">
<title>cluster_AppModule_imports</title>
<polygon fill="none" stroke="black" points="158,-78 158,-130 272,-130 272,-78 158,-78"/>
</g>
<g id="clust6" class="cluster">
<title>cluster_AppModule_providers</title>
<polygon fill="none" stroke="black" points="16,-78 16,-130 150,-130 150,-78 16,-78"/>
</g>
<g id="clust7" class="cluster">
<title>cluster_PrismaModule</title>
<polygon fill="none" stroke="black" stroke-dasharray="1,5" points="288,-138 288,-206 578,-206 578,-138 288,-138"/>
</g>
<g id="clust10" class="cluster">
<title>cluster_PrismaModule_exports</title>
<polygon fill="none" stroke="black" points="454,-146 454,-198 570,-198 570,-146 454,-146"/>
</g>
<g id="clust12" class="cluster">
<title>cluster_PrismaModule_providers</title>
<polygon fill="none" stroke="black" points="296,-146 296,-198 446,-198 446,-146 296,-146"/>
</g>
<!-- PrismaModule -->
<g id="node1" class="node">
<title>PrismaModule</title>
<polygon fill="#8dd3c7" stroke="black" points="264.43,-122 261.43,-126 240.43,-126 237.43,-122 165.57,-122 165.57,-86 264.43,-86 264.43,-122"/>
<text text-anchor="middle" x="215" y="-99.8" font-family="Times,serif" font-size="14.00">PrismaModule</text>
</g>
<!-- AppModule -->
<g id="node2" class="node">
<title>AppModule</title>
<polygon fill="#8dd3c7" stroke="black" points="190.66,-190 187.66,-194 166.66,-194 163.66,-190 107.34,-190 107.34,-154 190.66,-154 190.66,-190"/>
<text text-anchor="middle" x="149" y="-167.8" font-family="Times,serif" font-size="14.00">AppModule</text>
</g>
<!-- PrismaModule&#45;&gt;AppModule -->
<g id="edge1" class="edge">
<title>PrismaModule&#45;&gt;AppModule</title>
<path fill="none" stroke="black" d="M178.31,-122.22C178.31,-122.22 178.31,-143.73 178.31,-143.73"/>
<polygon fill="black" stroke="black" points="174.81,-143.73 178.31,-153.73 181.81,-143.73 174.81,-143.73"/>
</g>
<!-- PrismaService  -->
<g id="node4" class="node">
<title>PrismaService </title>
<polygon fill="#fb8072" stroke="black" points="562.36,-190 461.64,-190 461.64,-154 562.36,-154 562.36,-190"/>
<text text-anchor="middle" x="512" y="-167.8" font-family="Times,serif" font-size="14.00">PrismaService </text>
</g>
<!-- PrismaModule&#45;&gt;PrismaService  -->
<g id="edge3" class="edge">
<title>PrismaModule&#45;&gt;PrismaService </title>
<path fill="none" stroke="black" stroke-dasharray="5,2" d="M264.38,-104C348.83,-104 512,-104 512,-104 512,-104 512,-143.78 512,-143.78"/>
<polygon fill="black" stroke="black" points="508.5,-143.78 512,-153.78 515.5,-143.78 508.5,-143.78"/>
</g>
<!-- BlogService -->
<g id="node3" class="node">
<title>BlogService</title>
<ellipse fill="#fdb462" stroke="black" cx="83" cy="-104" rx="58.55" ry="18"/>
<text text-anchor="middle" x="83" y="-99.8" font-family="Times,serif" font-size="14.00">BlogService</text>
</g>
<!-- BlogService&#45;&gt;AppModule -->
<g id="edge2" class="edge">
<title>BlogService&#45;&gt;AppModule</title>
<path fill="none" stroke="black" d="M124.47,-116.79C124.47,-116.79 124.47,-143.88 124.47,-143.88"/>
<polygon fill="black" stroke="black" points="120.97,-143.88 124.47,-153.88 127.97,-143.88 120.97,-143.88"/>
</g>
<!-- PrismaService -->
<g id="node5" class="node">
<title>PrismaService</title>
<ellipse fill="#fdb462" stroke="black" cx="371" cy="-172" rx="66.63" ry="18"/>
<text text-anchor="middle" x="371" y="-167.8" font-family="Times,serif" font-size="14.00">PrismaService</text>
</g>
<!-- PrismaService&#45;&gt;PrismaModule -->
<g id="edge4" class="edge">
<title>PrismaService&#45;&gt;PrismaModule</title>
<path fill="none" stroke="black" d="M303.88,-172C266.54,-172 227.52,-172 227.52,-172 227.52,-172 227.52,-132.22 227.52,-132.22"/>
<polygon fill="black" stroke="black" points="231.02,-132.22 227.52,-122.22 224.02,-132.22 231.02,-132.22"/>
</g>
</g>
</svg>
